<!DOCTYPE svg PUBLIC "-//W3C//DTD SVG 1.1//EN" "http://www.w3.org/Graphics/SVG/1.1/DTD/svg11.dtd">
<!-- Uploaded to: SVG Repo, www.svgrepo.com, Transformed by: SVG Repo Mixer Tools -->
<svg fill="#000000" width="64px" height="64px" viewBox="-1.9 -1.9 22.80 22.80" xmlns="http://www.w3.org/2000/svg" class="cf-icon-svg" stroke="#000000" stroke-width="0.00019" transform="matrix(-1, 0, 0, 1, 0, 0)">
<g id="SVGRepo_bgCarrier" stroke-width="0">
<rect x="-1.9" y="-1.9" width="22.80" height="22.80" rx="0" fill="#000000" strokewidth="0"/>
</g>
<g id="SVGRepo_tracerCarrier" stroke-linecap="round" stroke-linejoin="round"/>
<g id="SVGRepo_iconCarrier">
<path d="M16.417 9.583A7.917 7.917 0 1 1 8.5 1.666a7.917 7.917 0 0 1 7.917 7.917zm-2.967-3.47a.792.792 0 0 0-.792-.792H4.342a.792.792 0 1 0 0 1.583h8.316a.792.792 0 0 0 .792-.791zm0 3.487a.792.792 0 0 0-.792-.791H4.342a.792.792 0 1 0 0 1.583h8.316a.792.792 0 0 0 .792-.792zm0 3.487a.792.792 0 0 0-.792-.791H4.342a.792.792 0 1 0 0 1.583h8.316a.792.792 0 0 0 .792-.792z"/>
</g>
</svg>